<svg xmlns="http://www.w3.org/2000/svg" xmlns:xlink="http://www.w3.org/1999/xlink" viewBox="0 0 135.83 135.75"><defs><style>.cls-1{fill:#fef2f2;}.cls-2{fill:#444545;}.cls-3{fill:#fdf2f2;}.cls-4{fill:#2e302e;}.cls-5{fill:#fff;stroke:#231f20;stroke-miterlimit:10;}.cls-6{fill:url(#linear-gradient);}.cls-7{font-size:4.91px;fill:#fdfefe;font-family:Montserrat-Regular, Montserrat;}</style><linearGradient id="linear-gradient" x1="58.05" y1="117.57" x2="80.15" y2="117.57" gradientUnits="userSpaceOnUse"><stop offset="0" stop-color="#f15757"/><stop offset="1" stop-color="#f37063"/></linearGradient></defs><title>Asset 22@2xd</title><g id="Layer_2" data-name="Layer 2"><g id="Layer_1-2" data-name="Layer 1"><g id="_1" data-name="1"><path class="cls-1" d="M131,112.46h0a6.5,6.5,0,0,1-6.5,6.5H11a6.5,6.5,0,0,1-6.5-6.5h0A6.5,6.5,0,0,1,11,106h1.33a7.7,7.7,0,0,0,7.7-7.7h0a1.5,1.5,0,0,0-1.5-1.5h0a6.5,6.5,0,0,1-6.5-6.5v-1a5.5,5.5,0,0,1,5.5-5.5h0a2.5,2.5,0,0,0,2.5-2.5h0a6.69,6.69,0,0,0-6.69-6.69H5.5A5.5,5.5,0,0,1,0,69.07v-1a6.5,6.5,0,0,1,6.5-6.5h118a6.5,6.5,0,0,1,6.5,6.5v1a5.5,5.5,0,0,1-5.5,5.5H106.75a1,1,0,0,0-1,1v7.19a1,1,0,0,0,1,1H124a6.52,6.52,0,0,1,6.5,6.5v1a5.5,5.5,0,0,1-5.5,5.5H106.75a1,1,0,0,0-1,1V105a1,1,0,0,0,1,1h17.8A6.5,6.5,0,0,1,131,112.46Z"/><path class="cls-2" d="M117.44,11.34V131.67H25.61V11.34A11.34,11.34,0,0,1,36.94,0h69.16A11.34,11.34,0,0,1,117.44,11.34Z"/><path class="cls-3" d="M113.1,25.13V131.67H30V25.13A7.13,7.13,0,0,1,37.08,18H106A7.13,7.13,0,0,1,113.1,25.13Z"/><rect class="cls-4" x="43.66" y="9.42" width="39.72" height="3" rx="1" ry="1"/><rect class="cls-4" x="59.8" y="32.28" width="39.72" height="3" rx="1" ry="1"/><rect class="cls-4" x="59.8" y="56.42" width="39.72" height="3" rx="1" ry="1"/><rect class="cls-4" x="59.8" y="80.57" width="39.72" height="3" rx="1" ry="1"/><rect class="cls-4" x="59.8" y="37.51" width="21" height="3" rx="1" ry="1"/><rect class="cls-4" x="59.8" y="62.66" width="21" height="3" rx="1" ry="1"/><rect class="cls-4" x="59.8" y="87.8" width="21" height="3" rx="1" ry="1"/><rect class="cls-4" x="5.83" y="130.75" width="130" height="5" rx="2.5" ry="2.5"/><rect class="cls-4" x="85.52" y="9.42" width="14" height="3" rx="1" ry="1"/><rect class="cls-5" x="38.36" y="30.97" width="17.44" height="17.44"/><polygon class="cls-5" points="38.36 44.49 43.46 38.61 46 43.51 55.8 40.57 55.8 48.41 38.36 48.41 38.36 44.49"/><circle class="cls-5" cx="51.39" cy="35.78" r="2.25"/><rect class="cls-5" x="38.36" y="55.12" width="17.44" height="17.44"/><polygon class="cls-5" points="38.36 68.64 43.46 62.76 46 67.66 55.8 64.72 55.8 72.56 38.36 72.56 38.36 68.64"/><circle class="cls-5" cx="51.39" cy="59.92" r="2.25"/><rect class="cls-5" x="38.36" y="79.26" width="17.44" height="17.44"/><polygon class="cls-5" points="38.36 92.78 43.46 86.9 46 91.8 55.8 88.86 55.8 96.7 38.36 96.7 38.36 92.78"/><circle class="cls-5" cx="51.39" cy="84.07" r="2.25"/><circle class="cls-6" cx="69.1" cy="117.57" r="11.05"/><text class="cls-7" transform="translate(63.57 119.55) scale(1.06 1)">PDF</text></g></g></g></svg>