<svg xmlns="http://www.w3.org/2000/svg" xmlns:xlink="http://www.w3.org/1999/xlink" viewBox="0 0 135.83 135.75"><defs><style>.cls-1{fill:#fef2f2;}.cls-2{fill:#444545;}.cls-3{fill:#fdf2f2;}.cls-4{fill:#2e302e;}.cls-5{fill:url(#linear-gradient);}.cls-6,.cls-7{fill:#fff;}.cls-6{stroke:#fff;stroke-miterlimit:10;stroke-width:0.2px;}</style><linearGradient id="linear-gradient" x1="40.25" y1="78.38" x2="101.41" y2="78.38" gradientUnits="userSpaceOnUse"><stop offset="0" stop-color="#f15757"/><stop offset="1" stop-color="#f37063"/></linearGradient></defs><title>Asset 21@2xd</title><g id="Layer_2" data-name="Layer 2"><g id="Layer_1-2" data-name="Layer 1"><g id="_2" data-name="2"><path class="cls-1" d="M131,112.46h0a6.5,6.5,0,0,1-6.5,6.5H11a6.5,6.5,0,0,1-6.5-6.5h0A6.5,6.5,0,0,1,11,106h1.33a7.7,7.7,0,0,0,7.7-7.7h0a1.5,1.5,0,0,0-1.5-1.5h0a6.5,6.5,0,0,1-6.5-6.5v-1a5.5,5.5,0,0,1,5.5-5.5h0a2.5,2.5,0,0,0,2.5-2.5h0a6.69,6.69,0,0,0-6.69-6.69H5.5A5.5,5.5,0,0,1,0,69.07v-1a6.5,6.5,0,0,1,6.5-6.5h118a6.5,6.5,0,0,1,6.5,6.5v1a5.5,5.5,0,0,1-5.5,5.5H106.75a1,1,0,0,0-1,1v7.19a1,1,0,0,0,1,1H124a6.52,6.52,0,0,1,6.5,6.5v1a5.5,5.5,0,0,1-5.5,5.5H106.75a1,1,0,0,0-1,1V105a1,1,0,0,0,1,1h17.8A6.5,6.5,0,0,1,131,112.46Z"/><path class="cls-2" d="M117.44,11.34V131.67H25.61V11.34A11.34,11.34,0,0,1,36.94,0h69.16A11.34,11.34,0,0,1,117.44,11.34Z"/><path class="cls-3" d="M113.1,25.13V131.67H30V25.13A7.13,7.13,0,0,1,37.08,18H106A7.13,7.13,0,0,1,113.1,25.13Z"/><rect class="cls-4" x="43.66" y="9.42" width="39.72" height="3" rx="1" ry="1"/><rect class="cls-4" x="5.83" y="130.75" width="130" height="5" rx="2.5" ry="2.5"/><rect class="cls-4" x="85.52" y="9.42" width="14" height="3" rx="1" ry="1"/><rect class="cls-5" x="40.25" y="46.42" width="61.17" height="63.91"/><polygon class="cls-6" points="40.24 96.75 58.11 74.86 67.05 93.1 101.42 82.16 101.42 111.34 40.24 111.34 40.24 96.75"/><ellipse class="cls-7" cx="85.93" cy="64.04" rx="7.88" ry="8.24"/><rect class="cls-2" x="79.58" y="40.3" width="14.14" height="2.03"/><path class="cls-2" d="M84.91,37.17h3.51l.64,2.15h2.6l-3.6-11.13H85.28l-3.6,11.13h2.6Zm1.73-6h0l1.16,3.94H85.48Zm0,0"/><path class="cls-2" d="M54.9,29.17a6.67,6.67,0,1,0,6.67,6.67,6.67,6.67,0,0,0-6.67-6.67Zm3.77,9-3.61,1.79a.35.35,0,0,1-.31,0l-3.61-1.79a.35.35,0,0,1,.31-.62l3.46,1.71,3.46-1.71a.35.35,0,0,1,.31.62Zm0-1.32-3.61,1.79a.35.35,0,0,1-.31,0l-3.61-1.79a.35.35,0,0,1,.31-.62l3.46,1.71,3.46-1.71a.35.35,0,1,1,.31.62Zm0-1.32L55.06,37.3a.35.35,0,0,1-.31,0l-3.61-1.79a.35.35,0,0,1,.31-.62L54.9,36.6l3.46-1.71a.35.35,0,0,1,.31.62Zm0-1.38-3.61,1.79a.35.35,0,0,1-.31,0l-3.61-1.79a.35.35,0,0,1,0-.62l3.61-1.79a.35.35,0,0,1,.31,0l3.61,1.79a.35.35,0,0,1,0,.62Zm0,0"/><path class="cls-2" d="M76.93,29.88c-.38-.37-1.14-.16-2.4.66a25.68,25.68,0,0,0-3.61,3,18.33,18.33,0,0,0-3.75,4.7l-.24-.07a1.93,1.93,0,0,0-1.46.33,2.06,2.06,0,0,0-.82,1.16A3.37,3.37,0,0,1,63.93,41a.3.3,0,0,0,0,.42,2.38,2.38,0,0,0,1.58.57,2.92,2.92,0,0,0,1.66-.54,3.3,3.3,0,0,0,.46-.39,1.89,1.89,0,0,0,.53-1.6,17.67,17.67,0,0,0,5-3.72,25.35,25.35,0,0,0,3.06-3.51C77.09,31,77.31,30.25,76.93,29.88ZM70.1,37.59,69,36.53c.19-.24.39-.48.61-.73L70.85,37Zm-2.89,3a2.68,2.68,0,0,1-.37.31,2.07,2.07,0,0,1-2.23.17,3.94,3.94,0,0,0,.65-1.32h0v0a1.46,1.46,0,0,1,.57-.8,1.3,1.3,0,0,1,1-.23,1,1,0,0,1,.63.42A1.22,1.22,0,0,1,67.21,40.64Zm.5-2.09A7.21,7.21,0,0,1,68.63,37l1,.94a7.36,7.36,0,0,1-1.62.92A1.12,1.12,0,0,0,67.7,38.54ZM75.64,32a25.46,25.46,0,0,1-2.89,3.29c-.49.48-1,.91-1.42,1.3L70,35.34c.41-.45.86-.92,1.34-1.38a25.78,25.78,0,0,1,3.38-2.82c1.24-.84,1.67-.84,1.75-.83S76.5,30.8,75.64,32Z"/></g></g></g></svg>