<svg xmlns="http://www.w3.org/2000/svg" xmlns:xlink="http://www.w3.org/1999/xlink" viewBox="0 0 135.83 135.75"><defs><style>.cls-1{fill:#fef2f2;}.cls-2{fill:#444545;}.cls-3{fill:#fdf2f2;}.cls-4{fill:#2e302e;}.cls-5,.cls-6,.cls-7{stroke-miterlimit:10;}.cls-5{fill:url(#linear-gradient);stroke:url(#linear-gradient-2);}.cls-6{fill:url(#linear-gradient-3);stroke:url(#linear-gradient-4);}.cls-7{fill:url(#linear-gradient-5);stroke:url(#linear-gradient-6);}.cls-8{fill:#e2e5e7;}.cls-9{fill:#b1b7bd;}.cls-10{fill:#cbd1d8;}.cls-11{fill:#f15843;}.cls-12{fill:#fff;}</style><linearGradient id="linear-gradient" x1="57.93" y1="72.38" x2="77.14" y2="72.38" gradientUnits="userSpaceOnUse"><stop offset="0.29" stop-color="#f15757"/><stop offset="1" stop-color="#f37063"/></linearGradient><linearGradient id="linear-gradient-2" x1="57.43" y1="72.14" x2="78" y2="72.14" gradientUnits="userSpaceOnUse"><stop offset="0" stop-color="#f37063"/><stop offset="1" stop-color="#f15757"/></linearGradient><linearGradient id="linear-gradient-3" x1="57.93" y1="70.06" x2="62.57" y2="70.06" xlink:href="#linear-gradient"/><linearGradient id="linear-gradient-4" x1="57.43" y1="70.06" x2="63.07" y2="70.06" xlink:href="#linear-gradient-2"/><linearGradient id="linear-gradient-5" x1="64.91" y1="78.75" x2="77.14" y2="78.75" xlink:href="#linear-gradient"/><linearGradient id="linear-gradient-6" x1="64.41" y1="78.75" x2="78" y2="78.75" xlink:href="#linear-gradient-2"/></defs><title>Asset 20@2xd</title><g id="Layer_2" data-name="Layer 2"><g id="Layer_1-2" data-name="Layer 1"><g id="_3" data-name="3"><path class="cls-1" d="M131,112.46h0a6.5,6.5,0,0,1-6.5,6.5H11a6.5,6.5,0,0,1-6.5-6.5h0A6.5,6.5,0,0,1,11,106h1.33a7.7,7.7,0,0,0,7.7-7.7h0a1.5,1.5,0,0,0-1.5-1.5h0a6.5,6.5,0,0,1-6.5-6.5v-1a5.5,5.5,0,0,1,5.5-5.5h0a2.5,2.5,0,0,0,2.5-2.5h0a6.69,6.69,0,0,0-6.69-6.69H5.5A5.5,5.5,0,0,1,0,69.07v-1a6.5,6.5,0,0,1,6.5-6.5h118a6.5,6.5,0,0,1,6.5,6.5v1a5.5,5.5,0,0,1-5.5,5.5H106.75a1,1,0,0,0-1,1v7.19a1,1,0,0,0,1,1H124a6.52,6.52,0,0,1,6.5,6.5v1a5.5,5.5,0,0,1-5.5,5.5H106.75a1,1,0,0,0-1,1V105a1,1,0,0,0,1,1h17.8A6.5,6.5,0,0,1,131,112.46Z"/><path class="cls-2" d="M117.44,11.34V131.67H25.61V11.34A11.34,11.34,0,0,1,36.94,0h69.16A11.34,11.34,0,0,1,117.44,11.34Z"/><path class="cls-3" d="M113.1,25.13V131.67H30V25.13A7.13,7.13,0,0,1,37.08,18H106A7.13,7.13,0,0,1,113.1,25.13Z"/><rect class="cls-4" x="43.66" y="9.42" width="39.72" height="3" rx="1" ry="1"/><rect class="cls-4" x="5.83" y="130.75" width="130" height="5" rx="2.5" ry="2.5"/><rect class="cls-4" x="85.52" y="9.42" width="14" height="3" rx="1" ry="1"/></g><path class="cls-5" d="M68.37,69.86h3.48v3.47l5.3-3.85-5.3-3.85v3.46H68.37a5,5,0,0,0-5,5,4.26,4.26,0,0,1-4.25,4.25h-.77a.39.39,0,1,0,0,.77h.77a5,5,0,0,0,5-5,4.26,4.26,0,0,1,4.25-4.25Zm4.25-2.72,3.21,2.33-3.21,2.33Zm0,0"/><path class="cls-6" d="M58.32,69.86h.77a4.25,4.25,0,0,1,2.84,1.08.39.39,0,0,0,.55,0,.39.39,0,0,0,0-.55,5,5,0,0,0-3.35-1.28h-.77a.39.39,0,1,0,0,.77Zm0,0"/><path class="cls-7" d="M71.85,78.36H68.37a4.25,4.25,0,0,1-2.81-1.06.39.39,0,0,0-.51.58,5,5,0,0,0,3.33,1.26h3.48V82.6l5.3-3.85-5.3-3.85Zm.77-1.95,3.21,2.33-3.21,2.33Zm0,0"/><path d="M56.57,63.66H45.85a.19.19,0,0,0-.19.19v8.42a.19.19,0,0,0,.19.19H56.57a.19.19,0,0,0,.19-.19V63.85a.19.19,0,0,0-.19-.19Zm-.19,8.42H46V64H56.38Zm0,0"/><path d="M48.72,67.9a1.07,1.07,0,1,0-1.07-1.07,1.07,1.07,0,0,0,1.07,1.07Zm0-1.75a.68.68,0,1,1-.68.68.68.68,0,0,1,.68-.68Zm0,0"/><path d="M47,71.31a.19.19,0,0,0,.13,0l3.12-2.75,2,2a.19.19,0,1,0,.27-.27l-.92-.92,1.76-1.92,2.15,2a.19.19,0,1,0,.26-.28L53.44,67a.2.2,0,0,0-.14,0,.19.19,0,0,0-.13.06L51.3,69l-.91-.91a.19.19,0,0,0-.26,0L46.88,71a.19.19,0,0,0,0,.27.19.19,0,0,0,.14.06Zm0,0"/><path class="cls-8" d="M87,62.28a1.39,1.39,0,0,0-1.38,1.38V83A1.39,1.39,0,0,0,87,84.42h13.84A1.39,1.39,0,0,0,102.21,83V67.81l-5.54-5.54Z"/><path class="cls-9" d="M98.06,67.81h4.15l-5.54-5.54v4.15A1.39,1.39,0,0,0,98.06,67.81Z"/><polygon class="cls-10" points="102.21 71.97 98.06 67.81 102.21 67.81 102.21 71.97"/><path class="cls-11" d="M99.44,80.27a.69.69,0,0,1-.69.69H83.53a.69.69,0,0,1-.69-.69V73.35a.69.69,0,0,1,.69-.69H98.75a.69.69,0,0,1,.69.69Z"/><path class="cls-12" d="M85.85,75.39a.38.38,0,0,1,.38-.38h1.28a1.38,1.38,0,0,1,0,2.77h-.92v.73a.35.35,0,0,1-.35.38.37.37,0,0,1-.38-.38Zm.73.31v1.38h.92a.69.69,0,0,0,0-1.38Z"/><path class="cls-12" d="M90,78.89a.35.35,0,0,1-.38-.34V75.4a.38.38,0,0,1,.38-.34h1.27a1.92,1.92,0,0,1,0,3.83Zm.35-3.15v2.48h.92a1.24,1.24,0,0,0,0-2.48Z"/><path class="cls-12" d="M94.6,75.78v.88H96a.43.43,0,0,1,.4.39.38.38,0,0,1-.4.33H94.6v1.16a.33.33,0,0,1-.33.34.35.35,0,0,1-.39-.34V75.4a.35.35,0,0,1,.39-.34h1.94a.35.35,0,0,1,.39.34.38.38,0,0,1-.39.38H94.6Z"/><path class="cls-10" d="M98.75,81H85.61v.69H98.75a.69.69,0,0,0,.69-.69v-.69A.69.69,0,0,1,98.75,81Z"/><rect x="46.73" y="82.19" width="8.97" height="0.76"/><path d="M50.1,79.94h2.23l.4,1.36h1.65L52.1,74.24H50.34L48.06,81.3h1.65Zm1.1-3.78h0l.74,2.5h-1.5Zm0,0"/></g></g></svg>